<svg xmlns="http://www.w3.org/2000/svg" viewBox="0 0 469.333 469.333">
  <style>
    path { fill: #000; }
    @media (prefers-color-scheme: dark) { path { fill: #fff; } }
  </style>
  <path d="M298.667 202.667c-20.083 0-31.76 3.688-41.156 6.646-7.125 2.25-12.76 4.021-21.062 4.021-7.177 0-15.104-3.208-25.146-7.271-15.479-6.26-34.75-14.063-61.969-14.063-5.896 0-10.667 4.771-10.667 10.667s4.771 10.667 10.667 10.667c23.073 0 39.49 6.646 53.969 12.5 11.219 4.542 21.813 8.833 33.146 8.833 11.594 0 19.667-2.542 27.479-5.01 8.823-2.781 17.948-5.656 34.74-5.656a10.66 10.66 0 0010.667-10.667 10.663 10.663 0 00-10.668-10.667z" />
  <path d="M335.594 0c-36.47 0-82.88 13.452-125.056 35.97-26.404-9.15-52.934-14.637-76.798-14.637C50 21.333 0 69.187 0 149.333c0 56.346 39.328 99.906 85.592 118.358l-.259 158.902c-.021 11.417 4.406 22.146 12.469 30.219 8.063 8.073 18.781 12.521 30.198 12.521h213.333c23.531 0 42.667-19.135 42.667-42.667V246.242c46.15-18.51 85.333-62.001 85.333-118.242 0-80.146-50-128-133.739-128zm27.073 426.667c0 11.76-9.573 21.333-21.333 21.333H128c-5.708 0-11.073-2.219-15.104-6.26a21.194 21.194 0 01-6.229-15.104l.069-42.636h255.931v42.667zm-27.073-192a10.66 10.66 0 00-10.667 10.667 10.66 10.66 0 0010.667 10.667c8.957 0 18.047-1.163 27.073-3.186v109.853H106.771l.145-88.458c8.944 1.987 17.949 3.125 26.824 3.125 5.896 0 10.667-4.771 10.667-10.667S139.635 256 133.74 256c-53.167 0-112.406-43.802-112.406-106.667 0-96.271 78.604-106.667 112.406-106.667 61.708 0 146.417 40.427 188.812 90.125 3.844 4.49 10.563 5 15.042 1.188 4.479-3.823 5.01-10.552 1.188-15.042-24.858-29.133-62.069-54.646-101.676-72.383 34.367-15.915 69.966-25.221 98.488-25.221C369.396 21.333 448 31.729 448 128c0 62.865-59.24 106.667-112.406 106.667z" />
</svg>
