<svg xmlns="http://www.w3.org/2000/svg" viewBox="0 0 469.333 469.333" fill="#e2b04f"><path d="M373.333 384H96.031c-5.885 0-10.656 4.771-10.667 10.656l-.031 31.938c-.021 11.406 4.407 22.135 12.469 30.219 8.063 8.073 18.792 12.521 30.198 12.521h213.333c23.531 0 42.667-19.135 42.667-42.667v-32A10.66 10.66 0 00373.333 384zM335.594 0c-21.885 0-47.635 4.833-74.469 13.969a10.67 10.67 0 00-7.208 9.365 10.665 10.665 0 005.865 10.26c7.167 3.594 14.302 7.375 21.313 11.479 5.073 2.979 6.781 9.531 3.813 14.604-2.865 4.885-9.667 6.719-14.604 3.813-45.031-26.396-96.083-42.156-136.562-42.156C50 21.333 0 69.187 0 149.333c0 58.74 41.823 100.781 85.49 118.229l-.083 84.427c0 2.833 1.115 5.542 3.125 7.552 2 2 4.708 3.125 7.542 3.125h277.26a10.66 10.66 0 0010.667-10.667V246.167c43.583-17.479 85.333-59.51 85.333-118.167-.001-80.146-50.001-128-133.74-128zm-36.927 224c-16.792 0-25.917 2.875-34.74 5.656-7.813 2.469-15.885 5.01-27.479 5.01-11.333 0-21.927-4.292-33.146-8.833-14.479-5.854-30.896-12.5-53.969-12.5-5.896 0-10.667-4.771-10.667-10.667S143.437 192 149.333 192c27.219 0 46.49 7.802 61.969 14.063 10.042 4.063 17.969 7.271 25.146 7.271 8.302 0 13.938-1.771 21.062-4.021 9.396-2.958 21.073-6.646 41.156-6.646a10.66 10.66 0 0110.667 10.667A10.66 10.66 0 01298.667 224z"/></svg>